<svg fill="#808080" version="1.1" xmlns="http://www.w3.org/2000/svg" width="93px" height="93px" viewBox="0 0 441.947 441.947" xml:space="preserve" transform="rotate(45)">
    <circle cx="219.439" cy="30.438" r="5.919"/> 
    <circle cx="209.078" cy="46.14" r="5.919"/> 
    <path d="M222.391,59.773l-16.272,182.186h10.848l7.52-180.637c1.753,1.036,3.252,1.411,3.252,1.411s0.433,0.15,1.429,0.3 l-7.452,178.926h3.783l5.632-178.731c1.19,0.081,2.749,0.121,4.741,0.05l-5.631,178.681h4.833l3.05-178.785 c1.41-0.094,2.978-0.219,4.741-0.417l-3.062,179.202h8.984l-3.871-179.555c12.76-3.228,4.147-24.211,4.147-36.706 c0-13.034,25.483-23.702,11.272-25.475c-14.23-1.784-32.592,7.402-28.147,18.659c4.44,11.267-10.361,19.856-12.742,30.524 C218.301,54.491,220.163,57.749,222.391,59.773z"/> 
    <path d="M224.973,441.921c97.166-1.579,80.579-67.533,67.146-91.245c-13.433-23.7-22.51-40.68-15.4-54.902 c7.105-14.21,38.708-69.128,3.166-88.866c0,0-9.093-3.949-12.259,12.637c-1.535,8.031-6.961,11.237-14.062,12.456l0.337,15.981 h-14.367l-1.883,110.997h16.162v20.735h-52.345v-20.735h10.553l4.615-111.001h-15.455l1.813-18.395 c-4.899-4.416-14.589-11.617-25.814-11.598L177.167,218c-0.322-0.008-0.645-0.05-0.981-0.05 c-13.954,0-25.273,11.313-25.273,25.279c0,0.762,0.066,1.491,0.134,2.232l-0.134,0.144c0,0,0.096,0.453,0.276,1.251 c0.126,0.845,0.256,1.687,0.471,2.509c0.234,0.934,0.541,1.847,0.877,2.744c2.232,8.256,7.011,23.917,15.747,44.455 c4.546,10.664-5.236,32.384-20.346,54.112C132.842,372.409,127.795,443.5,224.973,441.921z M286.1,371.719 c4.408,0,7.999,3.566,7.999,7.995c0,4.407-3.582,7.998-7.999,7.998c-4.424,0-8.002-3.574-8.002-7.998 C278.106,375.286,281.676,371.719,286.1,371.719z M278.106,399.563c4.416,0,8.003,3.582,8.003,7.994 c0,4.425-3.579,8.015-8.003,8.015c-4.416,0-8.003-3.582-8.003-8.015C270.103,403.145,273.69,399.563,278.106,399.563z M257.071,415.564c4.408,0,8.003,3.579,8.003,7.995c0,4.424-3.591,7.995-8.003,7.995c-4.424,0-8.015-3.571-8.015-7.995 C249.056,419.143,252.647,415.564,257.071,415.564z"/> 
    <polygon points="226.442,358.979 232.906,358.979 234.797,247.982 229.943,247.982 "/> 
    <polygon points="216.756,358.979 221.701,358.979 225.192,247.982 221.387,247.982 "/> 
</svg>
